<svg xmlns="http://www.w3.org/2000/svg" viewBox="0 0 395.39 358.45"><defs><style>.cls-1{fill:#333;}.cls-2{fill:#b7b7b7;}.cls-3{fill:#fff061;}.cls-4{fill:#fa0;}.cls-5{fill:#5c9eff;}.cls-6{fill:#ff3e3e;}.cls-7{fill:#fff;fill-opacity:0.5;stroke:#000;stroke-miterlimit:10;}</style></defs><g id="Layer_2" data-name="Layer 2"><g id="small-ship-shop"><g id="small-ship-shop-2" data-name="small-ship-shop"><polygon id="background" class="cls-1" points="395.39 54.26 395.39 358.45 0 358.45 0 35.51 187 35.51 187 0 300.3 0 300.3 54.26 395.39 54.26"/><polygon id="landing-pad" class="cls-2" points="196.25 73.03 196.25 111.16 180.03 111.16 180.03 203.59 171.03 203.59 171.03 216.42 133.07 216.42 133.07 203.59 12.34 203.59 12.34 48.65 180.03 48.65 180.03 73.03 196.25 73.03"/><g id="areas"><rect class="cls-3" x="196.25" y="10.45" width="94.94" height="52.25"/><rect class="cls-4" x="196.25" y="62.45" width="94.94" height="153.97"/><rect class="cls-5" x="291.25" y="62.45" width="93.2" height="153.97"/><rect class="cls-6" x="11.84" y="216.42" width="372.61" height="131"/></g><g id="borders"><polygon points="218.43 215.92 218.43 216.92 171.03 216.92 171.03 215.92 195.75 215.92 195.75 111.16 196.75 111.16 196.75 215.92 218.43 215.92"/><polygon points="291.75 199.6 291.75 215.92 305.29 215.92 305.29 216.92 269.01 216.92 269.01 215.92 290.69 215.92 290.69 199.6 291.75 199.6"/><polygon points="384.95 61.95 384.95 347.92 11.34 347.92 11.34 215.92 133.06 215.92 133.06 216.92 12.34 216.92 12.34 346.92 383.95 346.92 383.95 216.92 372.62 216.92 372.62 215.92 383.95 215.92 383.95 62.95 291.75 62.95 291.75 111.88 290.69 111.88 290.69 63.2 269.01 63.2 269.01 61.95 290.69 61.95 290.69 10.95 196.75 10.95 196.75 61.95 218.43 61.95 218.43 63.2 196.75 63.2 196.75 73.03 195.75 73.03 195.75 9.95 291.69 9.95 291.69 61.95 384.95 61.95"/></g><g id="spots"><rect id="spot-1" class="cls-7" x="222.07" y="16.75" width="39.99" height="39.99"/><rect id="spot-2" class="cls-7" x="222.07" y="68.75" width="39.99" height="39.99"/><rect id="spot-3" class="cls-7" x="202.48" y="125.74" width="80" height="80"/><rect id="spot-4" class="cls-7" x="295.48" y="70.75" width="39.99" height="39.99"/><rect id="spot-4-2" class="cls-7" x="295.48" y="70.75" width="83.99" height="39.99"/><rect id="spot-5" class="cls-7" x="339.48" y="70.75" width="39.99" height="39.99"/><rect id="spot-6" class="cls-7" x="316.48" y="165.75" width="39.99" height="39.99"/><rect id="spot-7" class="cls-7" x="23.48" y="246.19" width="80" height="80"/><rect id="spot-7-2" class="cls-7" x="23.48" y="246.19" width="169" height="80"/><rect id="spot-7-4" class="cls-7" x="23.48" y="246.19" width="351" height="80"/><rect id="spot-8" class="cls-7" x="112.48" y="246.19" width="80" height="80"/><rect id="spot-9" class="cls-7" x="204.48" y="246.19" width="80" height="80"/><rect id="spot-9-2" class="cls-7" x="204.48" y="246.19" width="170" height="80"/><rect id="spot-10" class="cls-7" x="294.48" y="245.74" width="80" height="80"/></g></g></g></g></svg>